<?xml version="1.0" encoding="UTF-8" standalone="no"?>
<!-- Created with Inkscape (http://www.inkscape.org/) -->

<svg
   xmlns:dc="http://purl.org/dc/elements/1.1/"
   xmlns:cc="http://creativecommons.org/ns#"
   xmlns:rdf="http://www.w3.org/1999/02/22-rdf-syntax-ns#"
   xmlns:svg="http://www.w3.org/2000/svg"
   xmlns="http://www.w3.org/2000/svg"
   xmlns:xlink="http://www.w3.org/1999/xlink"
   xmlns:sodipodi="http://sodipodi.sourceforge.net/DTD/sodipodi-0.dtd"
   xmlns:inkscape="http://www.inkscape.org/namespaces/inkscape"
   width="319.37482mm"
   height="302.03497mm"
   viewBox="0 0 319.37481 302.03497"
   version="1.1"
   id="svg8"
   inkscape:version="0.92.3 (2405546, 2018-03-11)"
   sodipodi:docname="FireDepIsrael.svg">
  <defs
     id="defs2">
    <radialGradient
       inkscape:collect="always"
       xlink:href="#linearGradient4812"
       id="radialGradient4548"
       gradientUnits="userSpaceOnUse"
       gradientTransform="matrix(-1.1482289,1.0390893,-0.92560053,-1.0228227,-1922.4632,427.38065)"
       cx="-750.09595"
       cy="-80.58091"
       fx="-750.09595"
       fy="-80.58091"
       r="53.93034" />
    <linearGradient
       id="linearGradient4812"
       inkscape:collect="always">
      <stop
         id="stop4808"
         offset="0"
         style="stop-color:#d03746;stop-opacity:1" />
      <stop
         id="stop4810"
         offset="1"
         style="stop-color:#b11b3d;stop-opacity:1" />
    </linearGradient>
  </defs>
  <sodipodi:namedview
     id="base"
     pagecolor="#ffffff"
     bordercolor="#666666"
     borderopacity="1.0"
     inkscape:pageopacity="0.0"
     inkscape:pageshadow="2"
     inkscape:zoom="0.4670481"
     inkscape:cx="666.30507"
     inkscape:cy="481.71641"
     inkscape:document-units="mm"
     inkscape:current-layer="layer1"
     showgrid="false"
     fit-margin-top="0"
     fit-margin-left="0"
     fit-margin-right="0"
     fit-margin-bottom="0"
     inkscape:window-width="1920"
     inkscape:window-height="1005"
     inkscape:window-x="-9"
     inkscape:window-y="-9"
     inkscape:window-maximized="1"
     showguides="false" />
  <metadata
     id="metadata5">
    <rdf:RDF>
      <cc:Work
         rdf:about="">
        <dc:format>image/svg+xml</dc:format>
        <dc:type
           rdf:resource="http://purl.org/dc/dcmitype/StillImage" />
        <dc:title />
      </cc:Work>
    </rdf:RDF>
  </metadata>
  <g
     inkscape:label="Layer 1"
     inkscape:groupmode="layer"
     id="layer1"
     transform="translate(366.75771,-10.93603)">
    <g
       id="g5374"
       transform="matrix(1.6541296,0,0,1.6541296,1432.8252,591.27291)">
      <path
         style="color:#000000;font-style:normal;font-variant:normal;font-weight:normal;font-stretch:normal;font-size:medium;line-height:normal;font-family:sans-serif;font-variant-ligatures:normal;font-variant-position:normal;font-variant-caps:normal;font-variant-numeric:normal;font-variant-alternates:normal;font-feature-settings:normal;text-indent:0;text-align:start;text-decoration:none;text-decoration-line:none;text-decoration-style:solid;text-decoration-color:#000000;letter-spacing:normal;word-spacing:normal;text-transform:none;writing-mode:lr-tb;direction:ltr;text-orientation:mixed;dominant-baseline:auto;baseline-shift:baseline;text-anchor:start;white-space:normal;shape-padding:0;clip-rule:nonzero;display:inline;overflow:visible;visibility:visible;opacity:1;isolation:auto;mix-blend-mode:normal;color-interpolation:sRGB;color-interpolation-filters:linearRGB;solid-color:#000000;solid-opacity:1;vector-effect:none;fill:url(#radialGradient4548);fill-opacity:1;fill-rule:nonzero;stroke:none;stroke-width:5.02660799;stroke-linecap:butt;stroke-linejoin:miter;stroke-miterlimit:4;stroke-dasharray:none;stroke-dashoffset:0;stroke-opacity:1;color-rendering:auto;image-rendering:auto;shape-rendering:auto;text-rendering:auto;enable-background:accumulate"
         d="m -991.70985,-325.73369 -0.95627,0.39513 -0.69414,0.2871 h -5.8e-4 c -0.6853,0.28356 -12.22556,5.17328 -24.91546,17.28304 -9.8569,1.63632 -20.0138,4.40262 -30.122,8.77569 v 10e-4 l -2.5868,1.12738 -0.036,2.8011 c 0,7e-4 0,0.008 0,0.009 v 0.01 c -0.021,1.07644 -0.1322,15.48878 4.7568,33.86963 -2.9615,10.23126 -4.8014,21.98158 -4.7625,35.37678 v 0.002 l 0.014,2.87558 2.6532,1.13079 0.013,0.005 c 0.1805,0.0746 11.0856,4.57015 27.6114,7.69436 7.8262,7.94613 17.0146,14.13965 27.38964,18.34389 l 0.0159,0.006 c 2.1e-4,1e-4 3.3e-4,4.8e-4 5.6e-4,5.7e-4 l 1.64302,0.67825 1.64305,-0.68734 c 0.82335,-0.3365 12.24005,-5.17336 24.92336,-17.2819 9.8568,-1.63718 20.01419,-4.4043 30.11913,-8.77512 l 10e-4,-5.7e-4 2.5947,-1.12567 0.0347,-2.80395 v -0.009 c 0.0209,-1.05318 0.13593,-15.47996 -4.75796,-33.87361 2.96265,-10.2325 4.80313,-21.98503 4.76422,-35.38246 v -0.002 l -0.0137,-2.87557 -2.64305,-1.12624 -0.002,-10e-4 c -0.40202,-0.17044 -3.05286,-1.26445 -7.98316,-2.81759 -4.77343,-1.50371 -11.52445,-3.35072 -19.65034,-4.88586 -7.82687,-7.94806 -17.0165,-14.14266 -27.39477,-18.34505 l -0.01,-0.004 z"
         id="path4514"
         inkscape:connector-curvature="0" />
      <g
         transform="translate(-4.0078517,-193.98002)"
         id="g4794">
        <path
           id="path4790"
           transform="scale(0.26458333)"
           d="m -3991.1835,-452.11719 c -8.4883,8.2892 -19.8583,21.08697 -30.3359,35.17969 0.2461,-15.63801 9.4444,-27.55614 10.6777,-59.28711 -11.9754,15.09067 -28.335,27.88707 -16.1621,66.91211 -1.5636,2.25103 -3.0944,4.51645 -4.5664,6.78906 -4.4932,6.93698 -8.3773,14.60219 -11.7442,22.9668 -4.4034,-10.42032 -3.772,-32.94521 -8.9043,-46.16602 -6.8343,14.07638 -10.9527,40.23592 3.2266,62.52149 -4.0777,13.66188 -7.1236,28.8559 -9.4277,45.48047 -4.9277,-13.53533 -3.2243,-36.02017 -11.4453,-51.56446 -5.322,18.25443 -11.5552,40.31394 9.6875,65.74024 -0.6972,6.36085 -1.3103,12.89792 -1.8418,19.63672 -0.5531,7.01116 -0.8748,14.35704 -0.8789,22.07031 -3.3547,-4.60596 -4.0471,-14.79081 -7.3868,-20.82813 -5.0041,-9.0471 -11.168,-17.34447 -17.8339,-25.3164 0.18,17.38955 -2.3018,34.18471 25.4609,57.74414 0.5698,13.83447 2.2197,28.82017 5.4121,45.16016 -11.7998,-9.99292 -22.8877,-25.51067 -33.1543,-41.9043 0.1,24.2494 13.7498,43.22561 36.3692,56.6289 3.6051,14.93709 8.5011,30.95915 14.9726,48.18555 -7.092,-5.14883 -9.8329,-13.34539 -14.0859,-18.13867 -7.3176,-8.24675 -14.4855,-14.26144 -21.7403,-21.56836 2.4642,13.87974 0.3675,31.97196 40.2227,51.01953 4.8854,12.09546 10.5362,24.76752 17.0566,38.060548 0.2054,0.418741 0.4257,0.840175 0.6348,1.259766 l -1.3262,-1.806641 c -13.2608,-13.433413 -25.2612,-18.679803 -37.4199,-24.947263 13.3975,30.510648 30.0156,34.642282 44.7266,38.003904 6.8831,12.171068 15.2734,24.719737 25.2695,37.75 -12.173,-9.21315 -25.7486,-15.265158 -39.5195,-20.882813 11.6223,17.403053 24.5341,33.644421 52.1855,36.621094 8.6681,10.318028 18.3042,20.9448018 28.9473,31.9257812 -10.6628,-5.59226021 -21.6527,-10.0417194 -33.1172,-12.828125 10.3372,16.7066287 25.9101,20.1498448 42.125,21.9667968 12.5522,12.528728 26.3704,25.515257 41.541,39.033203 l 8.5176,-6.085937 c -6.7531,-6.262198 -13.299,-12.36229 -19.6445,-18.332032 -0.3164,-15.07271 0.1759,-31.7993169 -13.5176,-46.166015 -0.9832,10.7491884 -2.3916,21.3345437 0.1,33.419922 -6.5522,-6.2830572 -12.854,-12.4331676 -18.8555,-18.4511721 -3.115,-16.3054939 -2.3832,-31.9699059 -24.3887,-51.4238279 0.3989,11.955923 2.2041,22.920553 4.3946,30.621093 -10.356,-11.276135 -19.517,-22.202626 -27.336,-32.966796 8.5926,-20.675977 3.7342,-39.380021 -4.5957,-58.964846 -2.8962,6.98212 -6.0802,13.66924 -6.539,23.015627 -0.5522,11.241229 5.6634,15.679342 5.248,27.490234 -3.1497,-4.743188 -6.0306,-9.465833 -8.6191,-14.179687 -5.8153,-10.590108 -11.1807,-20.677211 -16.0879,-30.335934 6.812,-19.11013 10.7346,-55.19735 3.0812,-64.60802 -5.2101,7.24195 -9.8538,20.7634 -10.1183,34.06114 -0.1145,5.77673 0.086,10.16458 -1.041,14.14453 -6.5155,-13.74496 -11.878,-26.52795 -15.9942,-38.52344 8.9655,-17.0054 9.2763,-33.36982 7.6914,-49.59374 -8.9618,7.20301 -9.3973,17.65039 -14.4414,25.47851 -0.123,-0.59522 -0.2504,-1.19212 -0.3652,-1.7832 -2.4794,-12.7597 -4.488,-24.58388 -6.082,-35.61719 13.2056,-16.60052 20.1947,-32.63495 18.5214,-47.88281 -14.7431,7.55248 -13.9942,18.61075 -20.9453,28.76562 -1.524,-14.33106 -2.1742,-27.05218 -1.9707,-38.33008 21.4409,-15.32971 29.2049,-31.34087 34.6739,-46.36914 -23.7027,7.23793 -22.5581,23.40878 -34.2208,35.98047 0.461,-6.42907 1.2386,-12.33734 2.3379,-17.75 1.8852,-9.28141 3.6068,-17.48151 5.2559,-24.88672 24.858,-11.9929 34.9378,-26.19004 38.875,-36.35546 -10.4199,7.84776 -22.8645,16.03587 -35.5254,22.10351 4.8326,-19.34668 9.5223,-32.2709 16.4316,-44.45703 l -0.074,0.29687 c 23.3518,-5.33227 50.6418,-29.52623 50.6418,-29.52623 -5.929,0.37056 -20.6305,3.35861 -41.1633,14.71373 7.9198,-10.96738 18.2623,-23.1459 32.6583,-40.4082 0.3398,-0.35681 0.5753,-0.65633 0.7617,-0.93164 13.7343,-4.14711 26.1952,-29.95724 26.1952,-29.95724 0,0 -28.5354,2.44996 -31.4849,28.37716 z"
           style="fill:none;fill-opacity:1;stroke:#b11b3d;stroke-width:12.47244072;stroke-linecap:butt;stroke-linejoin:miter;stroke-miterlimit:4;stroke-dasharray:none;stroke-opacity:1"
           inkscape:connector-curvature="0"
           sodipodi:nodetypes="cccccccccccccccccccccccccccccccccccccccccccccsccccccccccccccccccccccccccc" />
        <path
           style="fill:#ffffff;stroke:none;stroke-width:1.01031625px;stroke-linecap:butt;stroke-linejoin:miter;stroke-opacity:1"
           d="m -3958.6621,-480.69141 c -0.01,0.006 -0.027,0.0415 -0.039,0.0586 0,-10e-5 0.035,-0.004 0.035,-0.004 0.018,-0.0532 0.02,-0.0705 0,-0.0547 z m -0.039,0.0586 c -0.3816,0.0308 -30.8182,2.13855 -31.5827,28.96549 -8.4883,8.2892 -20.758,20.6371 -31.2356,34.72982 0.2461,-15.63801 9.4444,-27.55614 10.6777,-59.28711 -11.9754,15.09067 -28.335,27.88707 -16.1621,66.91211 -1.5636,2.25103 -3.0944,4.51645 -4.5664,6.78906 -4.4932,6.93698 -8.1202,16.01607 -11.4871,24.38068 -4.4034,-10.42032 -4.0291,-34.35909 -9.1614,-47.5799 -6.8343,14.07638 -10.9527,40.23592 3.2266,62.52149 -4.0777,13.66188 -7.1236,28.8559 -9.4277,45.48047 -4.9277,-13.53533 -3.2243,-36.02017 -11.4453,-51.56446 -5.322,18.25443 -11.5552,40.31394 9.6875,65.74024 -0.6972,6.36085 -1.3103,12.89792 -1.8418,19.63672 -0.5531,7.01116 -0.8748,14.35704 -0.8789,22.07031 -3.3547,-4.60596 -4.0471,-14.79081 -7.3868,-20.82813 -5.0041,-9.0471 -11.168,-17.34447 -17.8339,-25.3164 0.18,17.38955 -2.3018,34.18471 25.4609,57.74414 0.5698,13.83447 2.2197,28.82017 5.4121,45.16016 -11.7998,-9.99292 -22.8877,-25.51067 -33.1543,-41.9043 0.1,24.2494 13.7498,43.22561 36.3692,56.6289 3.6051,14.93709 8.5011,30.95915 14.9726,48.18555 -7.092,-5.14883 -9.8329,-13.34539 -14.0859,-18.13867 -7.3176,-8.24675 -14.4855,-14.26144 -21.7403,-21.56836 2.4642,13.87974 0.3675,31.97196 40.2227,51.01953 4.8854,12.09546 10.5362,24.76752 17.0566,38.060548 0.2054,0.418741 0.4257,0.840175 0.6348,1.259766 l -1.3262,-1.806641 c -13.2608,-13.433413 -25.2612,-18.679803 -37.4199,-24.947263 13.3975,30.510648 30.0156,34.642282 44.7266,38.003904 6.8831,12.171068 15.2734,24.719737 25.2695,37.75 -12.173,-9.21315 -25.7486,-15.265158 -39.5195,-20.882813 11.6223,17.403053 24.5341,33.644421 52.1855,36.621094 8.6681,10.318028 18.3042,20.9448018 28.9473,31.9257812 -10.6628,-5.59226021 -21.6527,-10.0417194 -33.1172,-12.828125 10.3372,16.7066287 25.9101,20.1498448 42.125,21.9667968 12.5522,12.528728 26.3704,25.515257 41.541,39.033203 l 8.5176,-6.085937 c -6.7531,-6.262198 -13.299,-12.36229 -19.6445,-18.332032 -0.3164,-15.07271 0.1759,-31.7993169 -13.5176,-46.166015 -0.9832,10.7491884 -2.3916,21.3345437 0.1,33.419922 -6.5522,-6.2830572 -12.854,-12.4331676 -18.8555,-18.4511721 -3.115,-16.3054939 -2.3832,-31.9699059 -24.3887,-51.4238279 0.3989,11.955923 2.2041,22.920553 4.3946,30.621093 -10.356,-11.276135 -19.517,-22.202626 -27.336,-32.966796 8.5926,-20.675977 3.7342,-39.380021 -4.5957,-58.964846 -2.8962,6.98212 -6.0802,13.66924 -6.539,23.015627 -0.5522,11.241229 5.6634,15.679342 5.248,27.490234 -3.1497,-4.743188 -6.0306,-9.465833 -8.6191,-14.179687 -5.8153,-10.590108 -11.1807,-20.677211 -16.0879,-30.335934 6.812,-19.11013 12.2074,-57.47346 2.9473,-63.80469 -5.2101,7.24195 -9.7199,19.96007 -9.9844,33.25781 -0.1145,5.77673 0.086,10.16458 -1.041,14.14453 -6.5155,-13.74496 -11.878,-26.52795 -15.9942,-38.52344 8.9655,-17.0054 9.2763,-33.36982 7.6914,-49.59374 -8.9618,7.20301 -9.3973,17.65039 -14.4414,25.47851 -0.123,-0.59522 -0.2504,-1.19212 -0.3652,-1.7832 -2.4794,-12.7597 -4.488,-24.58388 -6.082,-35.61719 13.2056,-16.60052 20.1947,-32.63495 18.5214,-47.88281 -15.5907,7.95503 -13.509,17.90201 -20.9453,28.76562 -1.524,-14.33106 -2.1742,-27.05218 -1.9707,-38.33008 21.4409,-15.32971 29.2049,-31.34087 34.6739,-46.36914 -25.1622,6.74219 -22.1286,22.94581 -34.2208,35.98047 0.461,-6.42907 1.2386,-12.33734 2.3379,-17.75 1.8852,-9.28141 3.6068,-17.48151 5.2559,-24.88672 24.858,-11.9929 36.5445,-28.33226 40.4817,-38.49768 -10.4199,7.84776 -24.4712,18.17809 -37.1321,24.24573 4.8326,-19.34668 9.5223,-32.2709 16.4316,-44.45703 l -0.074,0.29687 c 23.3518,-5.33227 36.4139,-18.14863 51.2637,-29.66406 -11.127,2.23362 -21.2518,3.4964 -41.7852,14.85156 7.9198,-10.96738 17.4911,-23.40297 31.8871,-40.66527 0.3398,-0.35681 1.3465,-0.39926 1.5329,-0.67457 13.7343,-4.14711 26.4096,-28.95077 27.1933,-30.0957 z"
           transform="scale(0.26458333)"
           id="path4792"
           inkscape:connector-curvature="0"
           sodipodi:nodetypes="cccccccccccccccccccccccccccccccccccccccccccccccccccsccccccccccccccccccccccccccc" />
      </g>
      <path
         id="path4784"
         d="m -922.78118,-313.60269 c 2.24586,2.19318 5.25418,5.57926 8.02637,9.30796 -0.0651,-4.13756 -2.49883,-7.2909 -2.82514,-15.68638 3.16849,3.99274 7.49697,7.37845 4.27623,17.70383 0.4137,0.59558 0.81872,1.19497 1.20819,1.79627 1.18882,1.83541 2.21649,3.86349 3.10732,6.07663 1.16506,-2.75704 0.99801,-8.71675 2.35593,-12.21476 1.80824,3.72438 2.8979,10.64575 -0.85371,16.54214 1.07889,3.61471 1.88479,7.6348 2.49442,12.03338 1.30378,-3.58122 0.85309,-9.53034 3.02823,-13.6431 1.40811,4.82982 3.05731,10.6664 -2.56315,17.39377 0.18447,1.68298 0.34668,3.41258 0.48731,5.19555 0.14634,1.85504 0.23146,3.79864 0.23254,5.83944 0.8876,-1.21866 1.0708,-3.9134 1.95443,-5.51078 1.324,-2.39371 2.95486,-4.58905 4.71855,-6.69829 -0.0476,4.60098 0.60902,9.0447 -6.73653,15.27813 -0.15076,3.66037 -0.5873,7.62534 -1.43195,11.94863 3.12203,-2.64396 6.0557,-6.7497 8.77207,-11.08718 -0.0265,6.41599 -3.63797,11.43677 -9.62268,14.98306 -0.95385,3.95211 -2.24925,8.19128 -3.9615,12.7491 1.87642,-1.3623 2.60162,-3.53097 3.72689,-4.79919 1.93612,-2.18196 3.83262,-3.77334 5.75212,-5.70663 -0.65198,3.67234 -0.0972,8.45924 -10.64225,13.49891 -1.2926,3.20026 -2.78771,6.55308 -4.51289,10.07019 -0.0543,0.11079 -0.11264,0.2223 -0.16796,0.33331 l 0.35089,-0.478 c 3.50858,-3.55426 6.68369,-4.94237 9.90068,-6.60063 -3.54476,8.07261 -7.94163,9.16577 -11.83391,10.0552 -1.82116,3.22026 -4.04109,6.54043 -6.68589,9.98802 3.22077,-2.43765 6.81265,-4.03891 10.4562,-5.52525 -3.07507,4.60456 -6.49131,8.90176 -13.80741,9.68933 -2.29344,2.72998 -4.84299,5.54165 -7.65898,8.44703 2.8212,-1.47962 5.72895,-2.65687 8.76226,-3.3941 -2.73505,4.42029 -6.85538,5.33131 -11.14557,5.81204 -3.3211,3.3149 -6.97717,6.75091 -10.99106,10.32754 l -2.25361,-1.61024 c 1.78676,-1.65687 3.51869,-3.27086 5.19761,-4.85035 0.0837,-3.98799 -0.0465,-8.41357 3.57653,-12.21476 0.26014,2.84406 0.63277,5.64477 -0.0265,8.84236 1.7336,-1.6624 3.40095,-3.28961 4.98885,-4.88188 0.82418,-4.31416 0.63055,-8.4587 6.45284,-13.60588 -0.10554,3.16333 -0.58316,6.06439 -1.16273,8.10183 2.74002,-2.98348 5.16387,-5.87445 7.23265,-8.72247 -2.27346,-5.47052 -0.98801,-10.41929 1.21594,-15.60111 0.76629,1.84735 1.60872,3.61665 1.73011,6.08955 0.1461,2.97424 -1.49844,4.14849 -1.38853,7.27346 0.83336,-1.25497 1.59559,-2.50451 2.28047,-3.75171 1.53863,-2.80197 2.95823,-5.47085 4.25659,-8.02638 -1.80234,-5.05623 -2.8402,-14.6043 -0.81524,-17.09421 1.37851,1.9161 2.60716,5.49365 2.67714,9.01201 0.0303,1.52843 -0.0228,2.68938 0.27543,3.74241 1.72389,-3.63669 3.14272,-7.01886 4.2318,-10.19266 -2.37212,-4.49935 -2.45436,-8.8291 -2.03502,-13.12168 2.37114,1.9058 2.48637,4.67 3.82096,6.74119 0.0325,-0.15749 0.0663,-0.31542 0.0966,-0.47181 0.65601,-3.376 1.18745,-6.50448 1.6092,-9.42371 -3.49398,-4.39222 -5.34318,-8.63466 -4.90046,-12.66899 3.90078,1.99826 3.70264,4.92409 5.54178,7.6109 0.40323,-3.79176 0.57526,-7.15756 0.52141,-10.1415 -5.6729,-4.05599 -7.72712,-8.29227 -9.17413,-12.2685 6.27134,1.91503 5.9685,6.19357 9.05425,9.51983 -0.12197,-1.70102 -0.32771,-3.26425 -0.61857,-4.69635 -0.49879,-2.45571 -0.9543,-4.62532 -1.39062,-6.58462 -6.57701,-3.17312 -9.24396,-6.92944 -10.28568,-9.61904 2.75693,2.07638 6.04957,4.24282 9.39943,5.84822 -1.27862,-5.11881 -2.51944,-8.53835 -4.34753,-11.76259 l 0.0196,0.0785 c -6.17849,-1.41083 -13.39897,-7.81214 -13.39897,-7.81214 1.56871,0.098 5.45848,0.88863 10.89112,3.893 -2.09545,-2.90178 -4.8319,-6.12402 -8.64084,-10.69133 -0.0899,-0.0944 -0.15222,-0.17366 -0.20154,-0.2465 -3.63386,-1.09726 -6.93081,-7.92619 -6.93081,-7.92619 0,0 7.54999,0.64822 8.33038,7.50813 z"
         style="fill:none;fill-opacity:1;stroke:#b11b3d;stroke-width:3.29999995;stroke-linecap:butt;stroke-linejoin:miter;stroke-miterlimit:4;stroke-dasharray:none;stroke-opacity:1"
         inkscape:connector-curvature="0"
         sodipodi:nodetypes="cccccccccccccccccccccccccccccccccccccccccccccsccccccccccccccccccccccccccc" />
      <path
         style="fill:#ffffff;stroke:none;stroke-width:0.26731282px;stroke-linecap:butt;stroke-linejoin:miter;stroke-opacity:1"
         d="m -931.3858,-321.16295 c 0.003,0.002 0.007,0.011 0.0103,0.0155 0,-3e-5 -0.009,-0.001 -0.009,-0.001 -0.005,-0.0141 -0.005,-0.0187 0,-0.0145 z m 0.0103,0.0155 c 0.10096,0.008 7.81391,0.68485 8.5943,7.54476 2.24586,2.19318 5.25418,5.57926 8.02637,9.30796 -0.0651,-4.13756 -2.49883,-7.2909 -2.82514,-15.68638 3.16849,3.99274 7.49697,7.37845 4.27623,17.70383 0.4137,0.59558 0.81872,1.19497 1.20819,1.79627 1.18882,1.83541 2.21649,3.86349 3.10732,6.07663 1.16506,-2.75704 0.99801,-8.71675 2.35593,-12.21476 1.80824,3.72438 2.8979,10.64575 -0.85371,16.54214 1.07889,3.61471 1.88479,7.6348 2.49442,12.03338 1.30378,-3.58122 0.85309,-9.53034 3.02823,-13.6431 1.40811,4.82982 3.05731,10.6664 -2.56315,17.39377 0.18447,1.68298 0.34668,3.41258 0.48731,5.19555 0.14634,1.85504 0.23146,3.79864 0.23254,5.83944 0.8876,-1.21866 1.0708,-3.9134 1.95443,-5.51078 1.324,-2.39371 2.95486,-4.58905 4.71855,-6.69829 -0.0476,4.60098 0.60902,9.0447 -6.73653,15.27813 -0.15076,3.66037 -0.5873,7.62534 -1.43195,11.94863 3.12203,-2.64396 6.0557,-6.7497 8.77207,-11.08718 -0.0265,6.41599 -3.63797,11.43677 -9.62268,14.98306 -0.95385,3.95211 -2.24925,8.19128 -3.9615,12.7491 1.87642,-1.3623 2.60162,-3.53097 3.72689,-4.79919 1.93612,-2.18196 3.83262,-3.77334 5.75212,-5.70663 -0.65198,3.67234 -0.0972,8.45924 -10.64225,13.49891 -1.2926,3.20026 -2.78771,6.55308 -4.51289,10.07019 -0.0543,0.11079 -0.11264,0.2223 -0.16796,0.33331 l 0.35089,-0.478 c 3.50858,-3.55426 6.68369,-4.94237 9.90068,-6.60063 -3.54476,8.07261 -7.94163,9.16577 -11.83391,10.0552 -1.82116,3.22026 -4.04109,6.54043 -6.68589,9.98802 3.22077,-2.43765 6.81265,-4.03891 10.4562,-5.52525 -3.07507,4.60456 -6.49131,8.90176 -13.80741,9.68933 -2.29344,2.72998 -4.84299,5.54165 -7.65898,8.44703 2.8212,-1.47962 5.72895,-2.65687 8.76226,-3.3941 -2.73505,4.42029 -6.85538,5.33131 -11.14557,5.81204 -3.3211,3.3149 -6.97717,6.75091 -10.99106,10.32754 l -2.25361,-1.61024 c 1.78676,-1.65687 3.51869,-3.27086 5.19761,-4.85035 0.0837,-3.98799 -0.0465,-8.41357 3.57653,-12.21476 0.26014,2.84406 0.63277,5.64477 -0.0265,8.84236 1.7336,-1.6624 3.40095,-3.28961 4.98885,-4.88188 0.82418,-4.31416 0.63055,-8.4587 6.45284,-13.60588 -0.10554,3.16333 -0.58316,6.06439 -1.16273,8.10183 2.74002,-2.98348 5.16387,-5.87445 7.23265,-8.72247 -2.27346,-5.47052 -0.98801,-10.41929 1.21594,-15.60111 0.76629,1.84735 1.60872,3.61665 1.73011,6.08955 0.1461,2.97424 -1.49844,4.14849 -1.38853,7.27346 0.83336,-1.25497 1.59559,-2.50451 2.28047,-3.75171 1.53863,-2.80197 2.95823,-5.47085 4.25659,-8.02638 -1.80234,-5.05623 -3.22988,-15.20652 -0.77981,-16.88166 1.37851,1.9161 2.57173,5.2811 2.64171,8.79946 0.0303,1.52843 -0.0228,2.68938 0.27543,3.74241 1.72389,-3.63669 3.14272,-7.01886 4.2318,-10.19266 -2.37212,-4.49935 -2.45436,-8.8291 -2.03502,-13.12168 2.37114,1.9058 2.48637,4.67 3.82096,6.74119 0.0325,-0.15749 0.0663,-0.31542 0.0966,-0.47181 0.65601,-3.376 1.18745,-6.50448 1.6092,-9.42371 -3.49398,-4.39222 -5.34318,-8.63466 -4.90046,-12.66899 4.12504,2.10476 3.57426,4.73657 5.54178,7.6109 0.40323,-3.79176 0.57526,-7.15756 0.52141,-10.1415 -5.6729,-4.05599 -7.72712,-8.29227 -9.17413,-12.2685 6.6575,1.78387 5.85486,6.07108 9.05425,9.51983 -0.12197,-1.70102 -0.32771,-3.26425 -0.61857,-4.69635 -0.49879,-2.45571 -0.9543,-4.62532 -1.39062,-6.58462 -6.57701,-3.17312 -9.66907,-7.49624 -10.71078,-10.18584 2.75693,2.07639 6.47467,4.80962 9.82453,6.41502 -1.27862,-5.11881 -2.51944,-8.53835 -4.34753,-11.76259 l 0.0196,0.0785 c -6.17849,-1.41083 -9.63451,-4.80182 -13.56352,-7.84861 2.94402,0.59098 5.62287,0.92509 11.05567,3.92947 -2.09545,-2.90178 -4.8319,-6.12402 -8.64084,-10.69133 -0.0899,-0.0944 -0.15222,-0.17366 -0.20154,-0.2465 -3.63386,-1.09726 -6.98754,-7.65989 -7.19489,-7.96282 z"
         id="path4786"
         inkscape:connector-curvature="0"
         sodipodi:nodetypes="cccccccccccccccccccccccccccccccccccccccccccccccccccsccccccccccccccccccccccccccc" />
      <path
         style="fill:#ffffff;fill-opacity:1;fill-rule:nonzero;stroke:none;stroke-width:5.02609491"
         d="m -991.70985,-323.01559 -0.69359,0.28654 c -0.58302,0.24126 -14.32926,6.00086 -28.21636,20.86301 -6.539,7.00427 -13.7142,16.78661 -19.1512,29.7615 0.4114,2.07967 0.89,4.24985 1.4503,6.49422 5.3634,-14.99405 13.2127,-26.00022 20.29,-33.60186 11.6404,-12.50995 23.45156,-18.4455 26.35665,-19.79248 6.77757,2.82392 12.68806,6.41994 17.84587,10.54549 0.90734,0.11195 1.80747,0.22727 2.69138,0.3502 1.39435,0.19391 2.75515,0.40206 4.08709,0.6197 -7.00295,-6.50118 -15.02341,-11.62201 -23.96143,-15.23978 z m -1.93809,15.79579 c -0.5158,-0.002 -1.03357,-5.9e-4 -1.55322,0.003 -3.60084,0.024 -7.29214,0.17546 -11.05154,0.47983 -1.5765,1.26394 -3.2085,2.65381 -4.8762,4.19284 35.76206,-4.26435 66.37002,6.45716 72.54504,8.81321 -0.0515,8.19249 -0.838,15.71183 -2.16265,22.59757 0.59061,1.60339 1.15306,3.23425 1.68624,4.89269 0.20728,0.6448 0.40562,1.28505 0.59977,1.92274 2.25561,-9.04046 3.60981,-19.23603 3.57656,-30.67511 l -0.005,-1.22119 -1.12113,-0.47756 c -0.37567,-0.15918 -25.14146,-10.41891 -57.63721,-10.52787 z m -27.77626,2.55095 c -8.5509,1.65796 -17.2883,4.22244 -25.9797,7.9826 l -1.0956,0.477 -0.015,1.19673 c -0.015,0.74889 -0.191,18.67141 6.559,39.68049 3.8375,11.93925 9.1602,22.38746 15.8214,31.18223 1.8158,0.42702 3.7417,0.84788 5.775,1.25018 -22.3801,-26.62892 -24.2899,-63.78236 -24.4458,-70.87182 6.3964,-2.68926 12.8137,-4.71598 19.1552,-6.21052 1.0732,-1.26952 2.1407,-2.47414 3.1917,-3.59987 v 0 c 0.3439,-0.36804 0.6877,-0.73011 1.0313,-1.08702 z m 58.3678,6.75858 c 22.38851,26.62972 24.30189,63.7927 24.45776,70.88319 -6.39904,2.69038 -12.81911,4.71751 -19.16314,6.21222 -1.07268,1.26866 -2.13925,2.47259 -3.18998,3.5976 -0.34385,0.36813 -0.68792,0.72999 -1.03127,1.08702 8.55111,-1.65857 17.28838,-4.22365 25.97741,-7.98204 l 1.10067,-0.47699 0.0154,-1.19673 c 0.0152,-0.75392 0.19092,-18.67151 -6.56414,-39.68561 -3.83953,-11.94352 -9.16474,-22.39657 -15.8299,-31.19416 -1.813,-0.42539 -3.73814,-0.84428 -5.77274,-1.2445 z m -81.8887,41.43608 c -2.2544,9.03878 -3.6075,19.2321 -3.5742,30.66829 l 0.01,1.22118 1.1211,0.47756 c 0.3769,0.15581 25.4021,10.52945 58.162,10.52957 3.92324,-2e-5 7.95879,-0.1514 12.07536,-0.48494 1.57488,-1.26321 3.20541,-2.65262 4.87169,-4.19057 -35.75815,4.26145 -66.36145,-6.4585 -72.53595,-8.81435 0.051,-8.18967 0.8377,-15.70687 2.1615,-22.59075 -0.592,-1.60716 -1.1558,-3.24157 -1.6902,-4.90406 -0.206,-0.64107 -0.4034,-1.2779 -0.5964,-1.91193 z m 99.86192,1.28713 c -5.36329,14.99265 -13.21292,25.99717 -20.28995,33.5956 -11.6454,12.51497 -23.45154,18.45061 -26.35663,19.79761 -6.78223,-2.82559 -12.69644,-6.42375 -17.85674,-10.55232 -2.3371,-0.28934 -4.5991,-0.61707 -6.7785,-0.97331 7.0059,6.50496 15.0302,11.6289 23.97176,15.25001 l 0.6936,0.28653 0.6993,-0.29222 c 0.578,-0.23622 14.32907,-5.99573 28.21112,-20.85789 6.54156,-7.00418 13.71867,-16.78631 19.15633,-29.76094 -0.41133,-2.07938 -0.89001,-4.24908 -1.45029,-6.49307 z"
         id="path4516"
         inkscape:connector-curvature="0" />
      <path
         style="fill:#c0bab4;fill-opacity:1;fill-rule:nonzero;stroke:none;stroke-width:5.02609491"
         d="m -1000.2559,-307.09871 c -0.2137,-0.0223 -5.7822,0.30268 -5.9968,0.36215 -1.5765,1.26394 -3.2085,2.65382 -4.8762,4.19285 z m 37.1995,9.18844 8.4664,4.99673 c -0.13538,-0.16693 -2.49985,-3.64254 -2.69364,-3.75223 -1.52912,-0.35054 -5.65575,-1.26542 -5.77276,-1.2445 z m -74.5423,20.97046 c -0.094,0.15135 -1.6451,3.50889 -2.162,4.80741 0,0.28159 1.3243,6.35752 1.44,6.52208 z m 92.51552,21.75275 -0.45255,10.70184 c 0.12383,-0.16378 1.90796,-3.98352 1.90284,-4.20877 -0.30703,-1.36649 -1.28635,-6.32676 -1.45029,-6.49307 z m -84.10932,26.74322 c 0.097,0.22626 2.2111,3.25485 3.0581,4.29404 0.2099,0.0751 5.5632,1.24534 5.775,1.25018 z m 56.90901,10.19074 -9.84454,4.50894 c 0.26775,0.0186 4.96337,-0.29772 4.97287,-0.31837 1.1645,-0.92069 4.79415,-3.9838 4.87167,-4.19057 z"
         id="path4542"
         inkscape:connector-curvature="0" />
      <path
         inkscape:connector-curvature="0"
         id="path4290"
         d="m -986.83261,-350.84124 -0.36637,3.67057 1.12342,0.11214 -0.64492,6.46162 c -0.0303,0.30268 -0.1901,0.43891 -0.47903,0.41031 l -1.01491,-0.10128 -0.36693,3.67057 3.00604,0.30024 c 1.47037,0.14711 2.28145,-0.53131 2.43136,-2.0345 l 0.83201,-8.33076 1.557,0.15555 c 0.29739,0.0296 0.42989,0.20879 0.3974,0.53899 l -1.00769,10.09085 3.88503,0.38809 1.21905,-12.20804 c 0.13652,-1.3656 -0.44069,-2.11296 -1.73117,-2.24172 z m -8.18502,0.0997 -3.91191,0.21859 0.79737,14.30456 3.91189,-0.21756 z m -9.51367,0.79478 c -0.159,0.005 -0.327,0.0224 -0.5049,0.0517 l -7.585,1.24747 0.5984,3.64009 5.4234,-0.89194 c 0.2864,-0.0473 0.4521,0.061 0.4951,0.32453 l 1.6614,10.10223 3.8664,-0.63614 -2.0004,-12.1605 c -0.1895,-1.15323 -0.8413,-1.71254 -1.9544,-1.67742 z m 32.43836,0.98651 -2.99413,14.01051 3.8313,0.81907 2.99517,-14.01103 z m -44.37506,1.21905 -3.7688,1.16737 1.7782,5.74073 -4.2214,-4.98471 -3.9378,1.22008 7.7691,8.75967 -4.0024,1.23972 1.0832,3.49746 8.7198,-2.70113 c 0.3903,-0.12065 0.5689,-0.23403 0.5359,-0.33951 -0.028,-0.0878 -0.1053,-0.20336 -0.2351,-0.34623 l -4.4426,-4.91598 c 1.9094,-0.93945 2.552,-2.42986 1.9197,-4.47104 z m 51.58859,0.30023 1.16787,6.4022 c -1.78576,-0.32244 -2.97305,0.40404 -3.5636,2.17816 l -1.7141,5.15162 3.57547,1.18959 2.09344,-6.29212 0.77203,7.24607 3.89847,1.29708 -0.9281,-6.905 c 0.88087,0.16686 1.65669,0.0538 2.32801,-0.33952 0.6703,-0.39299 1.13729,-0.9827 1.39941,-1.7694 l 1.54408,-4.64106 -3.64061,-1.21078 -1.92389,5.78104 -1.09659,-6.78666 z m -70.18489,2.55954 -3.5688,1.61799 3.035,6.69416 3.9155,-1.7756 1.8025,5.7211 c 0.1372,0.43356 0.1924,0.74224 0.1664,0.92604 -0.033,0.25753 -0.215,0.46124 -0.5452,0.61081 l -0.3343,0.15193 1.4205,3.13315 1.3255,-0.60152 c 1.0743,-0.48613 1.7183,-1.15256 1.9327,-1.99781 0.1739,-0.73625 0.064,-1.76857 -0.3286,-3.09748 l -3.0221,-9.99216 -4.2876,1.94355 z m 27.2423,1.26917 -3.8664,0.63614 1.3926,8.46615 3.866,-0.63614 z m 57.14534,1.25006 -1.62266,3.31245 3.12695,1.53221 c 0.26074,0.12735 0.33282,0.3115 0.21497,0.55139 l -2.89285,5.90558 -3.776,-1.84898 -1.61023,3.28765 8.28271,4.05815 1.61126,-3.28765 -1.00148,-0.49093 3.68917,-7.53132 c 0.37676,-0.76906 0.48736,-1.38675 0.33176,-1.85312 -0.14746,-0.42051 -0.5629,-0.79864 -1.24696,-1.13378 z m -90.14744,4.75113 c -0.3864,0.0172 -0.8096,0.16776 -1.2703,0.45113 l -6.5468,4.02818 1.9337,3.14193 4.6809,-2.88097 c 0.2473,-0.15204 0.4403,-0.11401 0.5803,0.11318 l 5.3656,8.71936 3.3372,-2.0531 -6.4585,-10.496 c -0.4375,-0.71085 -0.9783,-1.05232 -1.6221,-1.02371 z m 100.97054,0.80046 -2.00401,3.09697 2.40967,1.5596 c 0.73908,0.47802 0.87526,1.07644 0.41031,1.79575 l -2.39469,3.70055 c -0.26,0.40181 -0.52181,0.63053 -0.78393,0.68523 -0.26281,0.055 -0.60307,-0.0526 -1.02217,-0.32349 l -2.40966,-1.56011 -1.98903,3.07423 3.58634,2.32078 c 1.14194,0.73904 2.12082,1.00499 2.93574,0.79685 0.81526,-0.20707 1.61298,-0.91465 2.39366,-2.12079 l 3.42305,-5.2896 c 0.83007,-1.28341 1.14554,-2.34617 0.94517,-3.18896 -0.16439,-0.76447 -0.80164,-1.50638 -1.91358,-2.2257 z m -102.43874,6.52054 -3.3367,2.05362 4.4964,7.30705 3.3372,-2.05311 z m 21.9377,137.52235 -2.5967,6.87606 4.0214,1.51929 -2.7781,5.31596 c -0.2103,0.40322 -0.3899,0.65953 -0.5385,0.77101 -0.2053,0.15875 -0.4782,0.17405 -0.8175,0.046 l -0.3431,-0.12971 -1.216,3.21789 1.3622,0.51419 c 1.1028,0.41697 2.0292,0.40318 2.7792,-0.0424 0.6442,-0.39687 1.2979,-1.20328 1.9611,-2.42001 l 4.9418,-9.19582 -4.4038,-1.66295 1.2934,-3.42459 z m 55.38835,2.07171 -3.65765,1.40405 2.63498,6.86159 4.0137,-1.54099 1.46143,5.81773 c 0.11075,0.44062 0.14758,0.75247 0.11057,0.9338 -0.0476,0.25541 -0.24098,0.44827 -0.57928,0.57774 l -0.34314,0.13229 1.23352,3.21117 1.35858,-0.52193 c 1.10067,-0.42263 1.78303,-1.04882 2.04689,-1.88102 0.21696,-0.72425 0.16876,-1.76171 -0.1452,-3.11144 l -2.42723,-10.15287 -4.39457,1.68776 z m -46.97175,5.00073 1.8308,6.24458 c -1.8094,-0.13335 -2.9145,0.71359 -3.316,2.53886 l -1.1658,5.30355 3.6803,0.80874 1.4242,-6.47713 1.5255,7.12618 4.0132,0.8816 -1.6459,-6.76961 c 0.8936,0.0741 1.6535,-0.12011 2.28,-0.58084 0.6258,-0.46144 1.028,-1.09707 1.2061,-1.90635 l 1.0501,-4.77697 -3.7471,-0.82372 -1.3084,5.95054 -1.8009,-6.6337 z m 42.96683,0.2067 -3.79148,0.98754 2.14302,8.22223 3.79201,-0.98753 z m -5.92677,1.7756 -3.77651,0.38344 0.21445,9.11624 c 0.0138,0.67451 -0.19751,1.15398 -0.63355,1.43867 -0.31644,0.2085 -0.83521,0.34918 -1.55699,0.4222 l -0.75861,0.0775 c -0.87524,0.0885 -1.45608,0.0688 -1.74255,-0.0599 -0.35242,-0.14922 -0.61502,-0.53441 -0.78753,-1.156 l -0.0465,-0.18965 0.96117,-0.0972 c 1.31763,-0.1337 2.22605,-0.56858 2.72593,-1.30483 0.45296,-0.65651 0.61603,-1.60824 0.48937,-2.8546 l -0.52967,-5.22346 -3.57394,0.36277 0.55552,5.47047 c 0.0706,0.69674 -0.15123,1.07124 -0.66558,1.12345 l -0.41963,0.0424 -1.10795,-6.46989 -3.776,0.38344 1.77459,9.94358 c 0.51612,2.92805 2.52039,4.2158 6.01255,3.86126 l 1.78697,-0.18138 c 3.49178,-0.35419 5.19649,-2.01805 5.11389,-4.99091 z m -24.26621,0.61805 -0.25889,3.67988 3.54189,0.2496 c 0.29845,0.0212 0.4386,0.16499 0.41961,0.43098 l -0.71882,10.21333 3.90829,0.2744 0.86611,-12.2933 c 0.0935,-1.33209 -0.57883,-2.04901 -2.01745,-2.15026 z"
         style="fill:#b31d3e;fill-opacity:1;fill-rule:nonzero;stroke:none;stroke-width:0.35277778" />
      <g
         transform="matrix(0.98459126,0,0,0.98459126,-248.24159,-189.42135)"
         style="fill:#ffffff"
         id="g4469">
        <path
           d="m -735.12254,-56.769443 c 0,0 -1.59898,-1.260912 -4.1071,-3.280199 l 0.009,2.599489 c -0.005,0.03655 -0.032,1.132994 0.22842,2.837052 l 0.80406,0.703553 c 0,0 4.08426,3.33502 5.92537,9.264961 0.47513,0.406599 0.74924,0.543654 1.22437,-0.612182 0.47512,-1.155836 2.38477,-3.6137 2.59035,-4.362938 0.20102,-0.749237 -6.67461,-7.149736 -6.67461,-7.149736"
           style="fill:#ffffff;fill-opacity:1;fill-rule:nonzero;stroke:none;stroke-width:4.5685215"
           id="path1539"
           inkscape:connector-curvature="0" />
        <path
           d="m -778.54137,-80.776565 c 0.91827,-2.042129 2.9604,-5.719789 2.9604,-5.719789 0,0 0.92284,-0.511674 1.53046,-0.306091 0.99137,0.986801 2.54466,2.823346 3.56801,4.052279 0.54822,-0.781218 1.20609,-1.525887 2.00558,-2.206596 -1.01878,-1.023349 -1.80456,-1.891368 -2.26598,-2.530961 0,-1.292892 1.01878,-1.493907 0.27411,-5.37715 1.01878,-1.768018 2.44873,-6.743138 13.20759,-6.743138 0,0 -2.52182,-2.996949 -9.46597,-1.630959 -6.94872,1.356848 -8.34212,5.751765 -8.34212,5.751765 0,0 -1.12386,-0.511674 -2.8599,1.123857 -1.73604,1.63553 -1.53045,3.472076 -1.53045,3.472076 -3.98832,1.434516 -7.0538,3.371569 -7.0538,3.371569 0,0 -0.91827,1.128425 0,2.147205 0.92284,1.023349 5.51877,5.514206 5.51877,5.514206 0,0 1.53503,1.123856 2.4533,-0.918273"
           style="fill:#ffffff;fill-opacity:1;fill-rule:nonzero;stroke:none;stroke-width:4.5685215"
           id="path1543"
           inkscape:connector-curvature="0" />
        <path
           d="m -723.73231,-89.458586 c -0.82233,-0.817765 -6.54212,-3.220808 -6.54212,-3.220808 0,0 -4.64619,-3.983751 -6.68832,-5.258368 -4.90659,-2.553808 -6.59238,-0.612182 -7.51065,0.251269 3.62741,-0.356345 4.44517,2.202027 4.44517,2.202027 -2.44416,2.759387 -1.12385,5.308622 -1.12385,5.308622 0,0 -0.73553,0.662436 -1.9736,1.73147 0.70812,0.886293 1.29289,1.831977 1.77258,2.791366 l 3.01066,-2.782229 c 0,0 4.39492,5.208114 6.0807,7.611157 1.68122,2.398474 2.91015,1.375125 2.91015,1.375125 0,0 3.42182,-3.165986 5.61928,-5.313191 2.19289,-2.142636 0.81777,-3.878675 0,-4.69644"
           style="fill:#ffffff;fill-opacity:1;fill-rule:nonzero;stroke:none;stroke-width:4.5685215"
           id="path1547"
           inkscape:connector-curvature="0" />
        <path
           d="m -782.83302,-50.331948 c -0.20558,1.123856 1.73604,3.165985 2.44873,4.289842 0.71726,1.128425 1.22893,0.612182 1.32944,0.612182 2.45329,-10.420798 10.82739,-17.163936 10.82739,-17.163936 l 3.43096,-2.864463 -5.4274,-0.0091 c -9.99593,9.790342 -12.46293,14.317747 -12.60912,15.135512"
           style="fill:#ffffff;fill-opacity:1;fill-rule:nonzero;stroke:none;stroke-width:4.5685215"
           id="path1551"
           inkscape:connector-curvature="0" />
        <path
           d="m -740.85972,-57.483499 -0.009,-3.883243 -0.0457,-12.947191 0.005,-0.03655 c 0.005,-0.07766 0.47512,-5.304053 -1.7269,-10.119275 -0.45686,-1.005075 -1.03249,-1.987307 -1.74975,-2.90558 -0.87259,-1.114719 -1.94619,-2.128931 -3.28933,-2.951265 -6.72487,-4.13908 -12.86039,-3.047204 -14.5279,-2.640605 l -1.35685,7.108619 -0.42488,0.159899 c -1.34314,0.502537 -2.42588,1.146699 -3.31674,1.891368 -0.86345,0.717257 -1.53959,1.521317 -2.08325,2.371062 -1.29746,2.014718 -1.85025,4.271568 -2.31167,6.153799 -0.16447,0.685278 -0.3198,1.32944 -0.4934,1.900505 -0.86345,2.777661 -4.11167,4.778673 -6.05329,5.975626 -0.1599,0.105076 -0.34264,0.214721 -0.50711,0.319797 h 10.19694 5.71065 2.66345 l 1.69492,10.082727 3.12944,0.114213 0.22843,0.383756 c 4.96141,8.346689 11.53095,9.338058 14.34059,9.758362 0.36091,0.05025 0.65329,0.100507 0.86802,0.146192 1.0005,0.223858 1.41167,-0.05025 1.63553,-0.420304 -1.93249,-3.928928 -2.42589,-7.423847 -2.5401,-9.214708 -0.0503,-0.735532 -0.0366,-1.183247 -0.0366,-1.247206"
           style="fill:#ffffff;fill-opacity:1;fill-rule:nonzero;stroke:none;stroke-width:4.5685215"
           id="path1555"
           inkscape:connector-curvature="0" />
      </g>
    </g>
  </g>
</svg>
